<!--
<svg width="24" height="24" viewBox="0 0 24 24" fill="none" xmlns="http://www.w3.org/2000/svg">
<path d="M20.9603 6.0506C20.9106 7.03855 19.9709 7.40975 19.242 6.741C18.9106 6.4369 18.5138 6.06255 18.0418 5.60285C16.9756 6.5731 15.322 8.08585 13.3506 9.91645C12.8329 10.3972 11.992 10.3435 11.5397 9.8007L11.5394 9.8003C10.6518 8.73835 9.75755 7.6807 8.8322 6.6514C7.7509 7.4453 5.81 8.95825 3.88389 10.8844C3.39573 11.3725 2.60427 11.3725 2.11612 10.8844C1.62796 10.3962 1.62796 9.60475 2.11612 9.1166C4.00573 7.227 6.079 5.4545 8.30255 3.96314L8.306 3.96082C8.30685 3.96027 8.3066 3.96042 8.3066 3.96042C8.8024 3.6299 9.46255 3.69527 9.8839 4.1166C10.8519 5.08455 11.7265 6.14925 12.6118 7.19265C14.1169 5.80065 15.3848 4.64087 16.274 3.8314C15.8705 3.41506 15.5362 3.06006 15.26 2.75898C14.591 2.02997 14.9624 1.08998 15.9506 1.04025C17.2115 0.976795 18.5055 0.939456 19.7511 1.17232C20.3119 1.27718 20.7233 1.68863 20.8281 2.24948C21.061 3.49521 21.0238 4.78949 20.9603 6.0506Z" fill="#637381"/>
<g opacity="0.4">
<path d="M2.60946 22.9843C1.77292 22.9631 1.13928 22.4599 1.07089 21.6259C1.02993 21.1264 1 20.4398 1 19.5C1 18.5602 1.02993 17.8736 1.07089 17.3741C1.13928 16.5401 1.77292 16.0369 2.60946 16.0157C2.97545 16.0064 3.43306 16 4 16C4.56694 16 5.02455 16.0064 5.39055 16.0157C6.2271 16.0369 6.8607 16.5401 6.9291 17.3741C6.97005 17.8736 7 18.5602 7 19.5C7 20.4398 6.97005 21.1264 6.9291 21.6259C6.8607 22.4599 6.2271 22.9631 5.39055 22.9843C5.02455 22.9936 4.56694 23 4 23C3.43306 23 2.97545 22.9936 2.60946 22.9843Z" fill="#637381"/>
<path d="M18.8455 22.9792C17.8709 22.9408 17.1875 22.2557 17.1243 21.2823C17.0588 20.2731 17 18.6337 17 16C17 13.3663 17.0588 11.727 17.1243 10.7177C17.1875 9.74435 17.8709 9.0592 18.8455 9.02075C19.1671 9.00805 19.5489 9 20 9C20.4511 9 20.8329 9.00805 21.1545 9.02075C22.1291 9.0592 22.8125 9.74435 22.8757 10.7177C22.9412 11.727 23 13.3663 23 16C23 18.6337 22.9412 20.2731 22.8757 21.2823C22.8125 22.2557 22.1291 22.9408 21.1545 22.9792C20.8329 22.9919 20.4511 23 20 23C19.5489 23 19.1671 22.9919 18.8455 22.9792Z" fill="#637381"/>
<path d="M10.7766 22.9832C9.8427 22.9548 9.162 22.3419 9.0949 21.41C9.0422 20.6775 9 19.5936 9 18C9 16.4064 9.0422 15.3225 9.0949 14.59C9.162 13.6581 9.8427 13.0453 10.7766 13.0169C11.1121 13.0067 11.5163 13 12 13C12.4837 13 12.8879 13.0067 13.2234 13.0169C14.1573 13.0453 14.838 13.6581 14.9051 14.59C14.9578 15.3225 15 16.4064 15 18C15 19.5936 14.9578 20.6775 14.9051 21.41C14.838 22.3419 14.1573 22.9548 13.2234 22.9832C12.8879 22.9934 12.4837 23 12 23C11.5163 23 11.1121 22.9934 10.7766 22.9832Z" fill="#637381"/>
</g>
</svg>
-->

<svg xmlns="http://www.w3.org/2000/svg" width="800px" height="800px" viewBox="0 0 64 64" fill="none">
<path d="M56.87 25.981L50.27 21.031L47.27 18.781L35.57 10.001C34.4423 9.16327 33.0748 8.71094 31.67 8.71094C30.2652 8.71094 28.8977 9.16327 27.77 10.001L21.67 14.581V14.371C21.6684 13.8411 21.4572 13.3333 21.0825 12.9586C20.7077 12.5838 20.1999 12.3726 19.67 12.371H12.47C11.9396 12.371 11.4309 12.5817 11.0558 12.9568C10.6807 13.3319 10.47 13.8406 10.47 14.371V23.161L6.44002 26.291C6.23227 26.4524 6.05838 26.6531 5.92833 26.8817C5.79827 27.1103 5.71459 27.3624 5.68208 27.6234C5.64957 27.8844 5.66888 28.1493 5.73887 28.4028C5.80887 28.6564 5.92819 28.8936 6.09001 29.101C6.276 29.3427 6.51546 29.538 6.7896 29.6716C7.06373 29.8052 7.36505 29.8734 7.67 29.871C8.11211 29.8709 8.54152 29.7231 8.89 29.451L10.47 28.231V48.281C10.4716 50.0044 11.1569 51.6568 12.3756 52.8755C13.5942 54.0941 15.2466 54.7794 16.97 54.781H25.6C25.9594 54.7808 26.3121 54.6831 26.6203 54.4981C26.9285 54.3132 27.1807 54.0481 27.35 53.731C27.5142 53.4413 27.6003 53.114 27.6 52.781C27.6017 52.7109 27.5983 52.6407 27.59 52.571V46.851C27.5916 45.7703 28.0223 44.7345 28.7874 43.9713C29.5525 43.2081 30.5893 42.7799 31.67 42.781C32.7491 42.7821 33.7837 43.2112 34.5468 43.9742C35.3098 44.7373 35.7389 45.7719 35.74 46.851V52.781C35.7397 53.114 35.8259 53.4413 35.99 53.731C36.1624 54.0477 36.4167 54.3122 36.7263 54.4969C37.0359 54.6816 37.3895 54.7797 37.75 54.781H46.37C48.0929 54.7776 49.7442 54.0917 50.9624 52.8734C52.1807 51.6552 52.8666 50.0039 52.87 48.281V27.981L54.47 29.181C54.8129 29.4398 55.2305 29.5801 55.66 29.581C55.9718 29.5802 56.2792 29.5076 56.5584 29.3689C56.8376 29.2301 57.081 29.029 57.27 28.781C57.5883 28.3567 57.7249 27.8233 57.6499 27.2982C57.5749 26.7731 57.2944 26.2993 56.87 25.981Z" fill="#999999"/>
</svg>