<!--
<svg width="24" height="24" viewBox="0 0 24 24" fill="none" xmlns="http://www.w3.org/2000/svg">
<path d="M20.9603 6.0506C20.9106 7.03855 19.9709 7.40975 19.242 6.741C18.9106 6.4369 18.5138 6.06255 18.0418 5.60285C16.9756 6.5731 15.322 8.08585 13.3506 9.91645C12.8329 10.3972 11.992 10.3435 11.5397 9.8007L11.5394 9.8003C10.6518 8.73835 9.75755 7.6807 8.8322 6.6514C7.7509 7.4453 5.81 8.95825 3.88389 10.8844C3.39573 11.3725 2.60427 11.3725 2.11612 10.8844C1.62796 10.3962 1.62796 9.60475 2.11612 9.1166C4.00573 7.227 6.079 5.4545 8.30255 3.96314L8.306 3.96082C8.30685 3.96027 8.3066 3.96042 8.3066 3.96042C8.8024 3.6299 9.46255 3.69527 9.8839 4.1166C10.8519 5.08455 11.7265 6.14925 12.6118 7.19265C14.1169 5.80065 15.3848 4.64087 16.274 3.8314C15.8705 3.41506 15.5362 3.06006 15.26 2.75898C14.591 2.02997 14.9624 1.08998 15.9506 1.04025C17.2115 0.976795 18.5055 0.939456 19.7511 1.17232C20.3119 1.27718 20.7233 1.68863 20.8281 2.24948C21.061 3.49521 21.0238 4.78949 20.9603 6.0506Z" fill="#637381"/>
<g opacity="0.4">
<path d="M2.60946 22.9843C1.77292 22.9631 1.13928 22.4599 1.07089 21.6259C1.02993 21.1264 1 20.4398 1 19.5C1 18.5602 1.02993 17.8736 1.07089 17.3741C1.13928 16.5401 1.77292 16.0369 2.60946 16.0157C2.97545 16.0064 3.43306 16 4 16C4.56694 16 5.02455 16.0064 5.39055 16.0157C6.2271 16.0369 6.8607 16.5401 6.9291 17.3741C6.97005 17.8736 7 18.5602 7 19.5C7 20.4398 6.97005 21.1264 6.9291 21.6259C6.8607 22.4599 6.2271 22.9631 5.39055 22.9843C5.02455 22.9936 4.56694 23 4 23C3.43306 23 2.97545 22.9936 2.60946 22.9843Z" fill="#637381"/>
<path d="M18.8455 22.9792C17.8709 22.9408 17.1875 22.2557 17.1243 21.2823C17.0588 20.2731 17 18.6337 17 16C17 13.3663 17.0588 11.727 17.1243 10.7177C17.1875 9.74435 17.8709 9.0592 18.8455 9.02075C19.1671 9.00805 19.5489 9 20 9C20.4511 9 20.8329 9.00805 21.1545 9.02075C22.1291 9.0592 22.8125 9.74435 22.8757 10.7177C22.9412 11.727 23 13.3663 23 16C23 18.6337 22.9412 20.2731 22.8757 21.2823C22.8125 22.2557 22.1291 22.9408 21.1545 22.9792C20.8329 22.9919 20.4511 23 20 23C19.5489 23 19.1671 22.9919 18.8455 22.9792Z" fill="#637381"/>
<path d="M10.7766 22.9832C9.8427 22.9548 9.162 22.3419 9.0949 21.41C9.0422 20.6775 9 19.5936 9 18C9 16.4064 9.0422 15.3225 9.0949 14.59C9.162 13.6581 9.8427 13.0453 10.7766 13.0169C11.1121 13.0067 11.5163 13 12 13C12.4837 13 12.8879 13.0067 13.2234 13.0169C14.1573 13.0453 14.838 13.6581 14.9051 14.59C14.9578 15.3225 15 16.4064 15 18C15 19.5936 14.9578 20.6775 14.9051 21.41C14.838 22.3419 14.1573 22.9548 13.2234 22.9832C12.8879 22.9934 12.4837 23 12 23C11.5163 23 11.1121 22.9934 10.7766 22.9832Z" fill="#637381"/>
</g>
</svg>
-->

<svg xmlns="http://www.w3.org/2000/svg" width="800px" height="800px" viewBox="0 0 24 24" fill="none">
<path d="M5 14.0585C5 13.0494 5 12.5448 5.22166 12.1141C5.44333 11.6833 5.8539 11.3901 6.67505 10.8035L10.8375 7.83034C11.3989 7.42938 11.6795 7.2289 12 7.2289C12.3205 7.2289 12.6011 7.42938 13.1625 7.83034L17.325 10.8035C18.1461 11.3901 18.5567 11.6833 18.7783 12.1141C19 12.5448 19 13.0494 19 14.0585V19C19 19.9428 19 20.4142 18.7071 20.7071C18.4142 21 17.9428 21 17 21H7C6.05719 21 5.58579 21 5.29289 20.7071C5 20.4142 5 19.9428 5 19V14.0585Z" fill="#2A4157" fill-opacity="0.24"/>
<path d="M3 12.3866C3 12.6535 3 12.7869 3.0841 12.8281C3.16819 12.8692 3.27352 12.7873 3.48418 12.6234L10.7721 6.95502C11.362 6.49625 11.6569 6.26686 12 6.26686C12.3431 6.26686 12.638 6.49625 13.2279 6.95502L20.5158 12.6234C20.7265 12.7873 20.8318 12.8692 20.9159 12.8281C21 12.7869 21 12.6535 21 12.3866V11.9782C21 11.4978 21 11.2576 20.8983 11.0497C20.7966 10.8418 20.607 10.6944 20.2279 10.3995L13.2279 4.95502C12.638 4.49625 12.3431 4.26686 12 4.26686C11.6569 4.26686 11.362 4.49625 10.7721 4.95502L3.77212 10.3995C3.39295 10.6944 3.20337 10.8418 3.10168 11.0497C3 11.2576 3 11.4978 3 11.9782V12.3866Z" fill="#222222"/>
<path d="M12.5 15H11.5C10.3954 15 9.5 15.8954 9.5 17V20.85C9.5 20.9328 9.56716 21 9.65 21H14.35C14.4328 21 14.5 20.9328 14.5 20.85V17C14.5 15.8954 13.6046 15 12.5 15Z" fill="#222222"/>
<rect x="16" y="5" width="2" height="4" rx="0.5" fill="#222222"/>
</svg>