<!--<svg width="24" height="24" viewBox="0 0 24 24" fill="none" xmlns="http://www.w3.org/2000/svg">
<path opacity="0.4" d="M2.28099 19.6575C2.36966 20.5161 2.93261 21.1957 3.77688 21.3755C5.1095 21.6592 7.6216 22 12 22C16.3784 22 18.8905 21.6592 20.2232 21.3755C21.0674 21.1957 21.6303 20.5161 21.719 19.6575C21.8505 18.3844 22 16.0469 22 12C22 7.95305 21.8505 5.6156 21.719 4.34251C21.6303 3.48389 21.0674 2.80424 20.2231 2.62451C18.8905 2.34081 16.3784 2 12 2C7.6216 2 5.1095 2.34081 3.77688 2.62451C2.93261 2.80424 2.36966 3.48389 2.28099 4.34251C2.14952 5.6156 2 7.95305 2 12C2 16.0469 2.14952 18.3844 2.28099 19.6575Z" fill="#637381"/>
<path d="M13.9382 13.8559C15.263 13.1583 16.1663 11.7679 16.1663 10.1666C16.1663 7.8655 14.3008 6 11.9996 6C9.69841 6 7.83291 7.8655 7.83291 10.1666C7.83291 11.768 8.73626 13.1584 10.0612 13.856C8.28691 14.532 6.93216 16.1092 6.51251 18.0529C6.45446 18.3219 6.60246 18.5981 6.87341 18.6471C7.84581 18.8231 9.45616 19 12.0006 19C14.545 19 16.1554 18.8231 17.1278 18.6471C17.3977 18.5983 17.5454 18.3231 17.4876 18.0551C17.0685 16.1103 15.7133 14.5321 13.9382 13.8559Z" fill="#637381"/>
</svg>
-->
<svg xmlns="http://www.w3.org/2000/svg" width="800px" height="800px" viewBox="0 0 24 24" fill="none">
<path opacity="0.4" d="M12 22.01C17.5228 22.01 22 17.5329 22 12.01C22 6.48716 17.5228 2.01001 12 2.01001C6.47715 2.01001 2 6.48716 2 12.01C2 17.5329 6.47715 22.01 12 22.01Z" fill="#292D32"/>
<path d="M12 6.93994C9.93 6.93994 8.25 8.61994 8.25 10.6899C8.25 12.7199 9.84 14.3699 11.95 14.4299C11.98 14.4299 12.02 14.4299 12.04 14.4299C12.06 14.4299 12.09 14.4299 12.11 14.4299C12.12 14.4299 12.13 14.4299 12.13 14.4299C14.15 14.3599 15.74 12.7199 15.75 10.6899C15.75 8.61994 14.07 6.93994 12 6.93994Z" fill="#292D32"/>
<path d="M18.7807 19.36C17.0007 21 14.6207 22.01 12.0007 22.01C9.3807 22.01 7.0007 21 5.2207 19.36C5.4607 18.45 6.1107 17.62 7.0607 16.98C9.7907 15.16 14.2307 15.16 16.9407 16.98C17.9007 17.62 18.5407 18.45 18.7807 19.36Z" fill="#292D32"/>
</svg>